<svg width="40" height="40" viewBox="0 0 40 40" fill="none" xmlns="http://www.w3.org/2000/svg">
<path d="M37.2378 21.5529C36.9358 24.8201 35.7097 27.9337 33.7027 30.5295C31.6958 33.1252 28.9911 35.0957 25.9052 36.2103C22.8193 37.325 19.4797 37.5377 16.2772 36.8237C13.0748 36.1096 10.1419 34.4983 7.82185 32.1782C5.50177 29.8581 3.89042 26.9252 3.17635 23.7228C2.46228 20.5204 2.67503 17.1808 3.78969 14.0948C4.90436 11.0089 6.87484 8.30421 9.47057 6.29728C12.0663 4.29036 15.1799 3.0642 18.4471 2.76227C16.5343 5.3501 15.6138 8.53853 15.8531 11.7477C16.0924 14.9568 17.4756 17.9734 19.7511 20.2489C22.0266 22.5244 25.0432 23.9076 28.2524 24.1469C31.4615 24.3862 34.6499 23.4658 37.2378 21.5529Z" stroke="#3D9BD0" stroke-width="3.83875" stroke-linecap="round" stroke-linejoin="round"/>
</svg>
