<svg width="44" height="44" viewBox="0 0 44 44" fill="none" xmlns="http://www.w3.org/2000/svg">
<path d="M31.5969 2.80624H12.4031C7.10292 2.80624 2.80625 7.10291 2.80625 12.4031V31.5969C2.80625 36.8971 7.10292 41.1937 12.4031 41.1937H31.5969C36.8971 41.1937 41.1938 36.8971 41.1938 31.5969V12.4031C41.1938 7.10291 36.8971 2.80624 31.5969 2.80624Z" stroke="#3D9BD0" stroke-width="3.83875" stroke-linecap="round" stroke-linejoin="round"/>
<path d="M29.6775 20.7908C29.9144 22.3882 29.6415 24.0196 28.8978 25.453C28.154 26.8864 26.9772 28.0487 25.5348 28.7748C24.0923 29.5008 22.4577 29.7535 20.8633 29.4969C19.269 29.2404 17.7961 28.4876 16.6542 27.3458C15.5124 26.2039 14.7596 24.731 14.503 23.1367C14.2465 21.5423 14.4992 19.9077 15.2252 18.4652C15.9513 17.0228 17.1136 15.846 18.547 15.1022C19.9804 14.3585 21.6118 14.0856 23.2092 14.3225C24.8386 14.5641 26.3471 15.3234 27.5119 16.4881C28.6766 17.6529 29.4359 19.1614 29.6775 20.7908Z" stroke="#3D9BD0" stroke-width="3.83875" stroke-linecap="round" stroke-linejoin="round"/>
<path d="M32.5566 11.4434H32.5758" stroke="#3D9BD0" stroke-width="3.83875" stroke-linecap="round" stroke-linejoin="round"/>
</svg>
