<svg width="44" height="42" viewBox="0 0 44 42" fill="none" xmlns="http://www.w3.org/2000/svg">
<path d="M29.6775 14.2822C32.7318 14.2822 35.661 15.4955 37.8207 17.6552C39.9804 19.8149 41.1938 22.7441 41.1938 25.7984V39.234H33.5163V25.7984C33.5163 24.7803 33.1118 23.8039 32.3919 23.084C31.672 22.3641 30.6956 21.9597 29.6775 21.9597C28.6594 21.9597 27.683 22.3641 26.9631 23.084C26.2432 23.8039 25.8388 24.7803 25.8388 25.7984V39.234H18.1613V25.7984C18.1613 22.7441 19.3746 19.8149 21.5343 17.6552C23.694 15.4955 26.6232 14.2822 29.6775 14.2822Z" stroke="#3D9BD0" stroke-width="3.83875" stroke-linecap="round" stroke-linejoin="round"/>
<path d="M10.4838 16.2016H2.80626V39.2341H10.4838V16.2016Z" stroke="#3D9BD0" stroke-width="3.83875" stroke-linecap="round" stroke-linejoin="round"/>
<path d="M6.64501 10.4434C8.76509 10.4434 10.4838 8.72476 10.4838 6.60468C10.4838 4.4846 8.76509 2.76593 6.64501 2.76593C4.52493 2.76593 2.80626 4.4846 2.80626 6.60468C2.80626 8.72476 4.52493 10.4434 6.64501 10.4434Z" stroke="#3D9BD0" stroke-width="3.83875" stroke-linecap="round" stroke-linejoin="round"/>
</svg>
