<svg width="35" height="34" viewBox="0 0 35 34" fill="none" xmlns="http://www.w3.org/2000/svg">
<path d="M33.4999 16.1111C33.5061 18.4576 32.9579 20.7723 31.9 22.8667C30.6456 25.3764 28.7173 27.4874 26.331 28.9632C23.9447 30.4389 21.1946 31.2211 18.3889 31.2222C16.0424 31.2283 13.7277 30.6801 11.6333 29.6222L1.5 33L4.87777 22.8667C3.81987 20.7723 3.27166 18.4576 3.27777 16.1111C3.27886 13.3054 4.06108 10.5553 5.53683 8.16902C7.01257 5.78271 9.12355 3.85439 11.6333 2.60005C13.7277 1.54215 16.0424 0.993933 18.3889 1.00005H19.2777C22.9833 1.20448 26.4831 2.76851 29.1073 5.39268C31.7315 8.01685 33.2955 11.5167 33.4999 15.2223V16.1111Z" stroke="black" stroke-width="2" stroke-linecap="round" stroke-linejoin="round"/>
</svg>
