<svg width="336" height="104" viewBox="0 0 336 104" fill="none" xmlns="http://www.w3.org/2000/svg">
<path d="M25.8914 25.6332C20.7706 30.7029 17.2681 37.1775 15.8269 44.2377C14.3857 51.298 15.0705 58.6273 17.7947 65.2984C20.5189 71.9695 25.1602 77.6831 31.1315 81.7165C37.1028 85.7498 44.1363 87.9219 51.3421 87.958C58.5478 87.9941 65.6027 85.8926 71.6142 81.9193C77.6256 77.946 82.324 72.2792 85.1149 65.6358C87.9058 58.9923 88.664 51.6702 87.2936 44.5959C85.9233 37.5215 82.4858 31.0122 77.4161 25.8914L51.3421 87.958L25.8914 25.6332Z" fill="#00070B"/>
<path d="M52.2665 77.7481L45.9072 61.7037L58.9451 61.834L52.2665 77.7481Z" fill="#00070B"/>
<path d="M52.0966 71.2492L41.3253 44.3326L63.2273 44.4792L52.0966 71.2492Z" fill="#00070B"/>
<path d="M52.4527 60.9637L38.242 26.0224L66.7388 26.0531L52.4527 60.9637Z" fill="#00070B"/>
<path d="M119.484 42.8906C121.062 42.8906 122.492 43.125 123.773 43.5938C125.055 44.0625 126.141 44.7031 127.031 45.5156C127.938 46.3281 128.633 47.2812 129.117 48.375C129.602 49.4531 129.844 50.6016 129.844 51.8203V66.0703C129.844 67.2891 129.602 68.4453 129.117 69.5391C128.633 70.6172 127.938 71.5625 127.031 72.375C126.141 73.1875 125.055 73.8281 123.773 74.2969C122.492 74.7656 121.062 75 119.484 75H112.266C110.688 75 109.258 74.7656 107.977 74.2969C106.695 73.8281 105.602 73.1875 104.695 72.375C103.805 71.5625 103.117 70.6172 102.633 69.5391C102.148 68.4453 101.906 67.2891 101.906 66.0703V51.8203C101.906 50.6016 102.148 49.4531 102.633 48.375C103.117 47.2812 103.805 46.3281 104.695 45.5156C105.602 44.7031 106.695 44.0625 107.977 43.5938C109.258 43.125 110.688 42.8906 112.266 42.8906H119.484ZM115.828 45.375L114.539 45H111.469L109.5 45.3281L108 46.8281V64.3828H110.508V47.6953C110.727 47.6484 110.922 47.6172 111.094 47.6016C111.266 47.5859 111.453 47.5469 111.656 47.4844H114.328C114.5 47.5469 114.664 47.5859 114.82 47.6016C114.992 47.6172 115.164 47.6484 115.336 47.6953V57.6328H117.844V47.6953L118.852 47.4844H121.547C121.734 47.5469 121.922 47.5859 122.109 47.6016C122.297 47.6172 122.492 47.6484 122.695 47.6953V64.3828H125.18V46.8281L123.703 45.3281L121.734 45H118.664L117.398 45.375L116.602 46.9922L115.828 45.375ZM138.141 61.8984V64.3828H151.688V61.8984H146.18V47.4844H151.688V45H138.141V47.4844H143.672V61.8984H138.141ZM147.234 42.8906C148.812 42.8906 150.242 43.125 151.523 43.5938C152.805 44.0625 153.891 44.7031 154.781 45.5156C155.688 46.3281 156.383 47.2812 156.867 48.375C157.352 49.4531 157.594 50.6016 157.594 51.8203V66.0703C157.594 67.2891 157.352 68.4453 156.867 69.5391C156.383 70.6172 155.688 71.5625 154.781 72.375C153.891 73.1875 152.805 73.8281 151.523 74.2969C150.242 74.7656 148.812 75 147.234 75H140.016C138.438 75 137.008 74.7656 135.727 74.2969C134.445 73.8281 133.352 73.1875 132.445 72.375C131.555 71.5625 130.867 70.6172 130.383 69.5391C129.898 68.4453 129.656 67.2891 129.656 66.0703V51.8203C129.656 50.6016 129.898 49.4531 130.383 48.375C130.867 47.2812 131.555 46.3281 132.445 45.5156C133.352 44.7031 134.445 44.0625 135.727 43.5938C137.008 43.125 138.438 42.8906 140.016 42.8906H147.234ZM179.344 48.75L179.016 46.7812L177.516 45.2812L175.125 45H169.266L165.047 45.5859V64.3828H167.531V47.7422L169.359 47.4375H174.984L176.602 47.6953L176.836 49.0781V64.3828H179.344V48.75ZM174.984 42.8906C176.562 42.8906 177.992 43.125 179.273 43.5938C180.555 44.0625 181.641 44.7031 182.531 45.5156C183.438 46.3281 184.133 47.2812 184.617 48.375C185.102 49.4531 185.344 50.6016 185.344 51.8203V66.0703C185.344 67.2891 185.102 68.4453 184.617 69.5391C184.133 70.6172 183.438 71.5625 182.531 72.375C181.641 73.1875 180.555 73.8281 179.273 74.2969C177.992 74.7656 176.562 75 174.984 75H167.766C166.188 75 164.758 74.7656 163.477 74.2969C162.195 73.8281 161.102 73.1875 160.195 72.375C159.305 71.5625 158.617 70.6172 158.133 69.5391C157.648 68.4453 157.406 67.2891 157.406 66.0703V51.8203C157.406 50.6016 157.648 49.4531 158.133 48.375C158.617 47.2812 159.305 46.3281 160.195 45.5156C161.102 44.7031 162.195 44.0625 163.477 43.5938C164.758 43.125 166.188 42.8906 167.766 42.8906H174.984ZM193.641 61.8984V64.3828H207.188V61.8984H201.68V47.4844H207.188V45H193.641V47.4844H199.172V61.8984H193.641ZM202.734 42.8906C204.312 42.8906 205.742 43.125 207.023 43.5938C208.305 44.0625 209.391 44.7031 210.281 45.5156C211.188 46.3281 211.883 47.2812 212.367 48.375C212.852 49.4531 213.094 50.6016 213.094 51.8203V66.0703C213.094 67.2891 212.852 68.4453 212.367 69.5391C211.883 70.6172 211.188 71.5625 210.281 72.375C209.391 73.1875 208.305 73.8281 207.023 74.2969C205.742 74.7656 204.312 75 202.734 75H195.516C193.938 75 192.508 74.7656 191.227 74.2969C189.945 73.8281 188.852 73.1875 187.945 72.375C187.055 71.5625 186.367 70.6172 185.883 69.5391C185.398 68.4453 185.156 67.2891 185.156 66.0703V51.8203C185.156 50.6016 185.398 49.4531 185.883 48.375C186.367 47.2812 187.055 46.3281 187.945 45.5156C188.852 44.7031 189.945 44.0625 191.227 43.5938C192.508 43.125 193.938 42.8906 195.516 42.8906H202.734ZM232.641 53.0625H224.812V47.4844H233.977V45H222.305V64.3828H224.812V55.5234H232.641V53.0625ZM230.484 42.8906C232.062 42.8906 233.492 43.125 234.773 43.5938C236.055 44.0625 237.141 44.7031 238.031 45.5156C238.938 46.3281 239.633 47.2812 240.117 48.375C240.602 49.4531 240.844 50.6016 240.844 51.8203V66.0703C240.844 67.2891 240.602 68.4453 240.117 69.5391C239.633 70.6172 238.938 71.5625 238.031 72.375C237.141 73.1875 236.055 73.8281 234.773 74.2969C233.492 74.7656 232.062 75 230.484 75H223.266C221.688 75 220.258 74.7656 218.977 74.2969C217.695 73.8281 216.602 73.1875 215.695 72.375C214.805 71.5625 214.117 70.6172 213.633 69.5391C213.148 68.4453 212.906 67.2891 212.906 66.0703V51.8203C212.906 50.6016 213.148 49.4531 213.633 48.375C214.117 47.2812 214.805 46.3281 215.695 45.5156C216.602 44.7031 217.695 44.0625 218.977 43.5938C220.258 43.125 221.688 42.8906 223.266 42.8906H230.484ZM258.234 42.8906C259.812 42.8906 261.242 43.125 262.523 43.5938C263.805 44.0625 264.891 44.7031 265.781 45.5156C266.688 46.3281 267.383 47.2812 267.867 48.375C268.352 49.4531 268.594 50.6016 268.594 51.8203V66.0703C268.594 67.2891 268.352 68.4453 267.867 69.5391C267.383 70.6172 266.688 71.5625 265.781 72.375C264.891 73.1875 263.805 73.8281 262.523 74.2969C261.242 74.7656 259.812 75 258.234 75H251.016C249.438 75 248.008 74.7656 246.727 74.2969C245.445 73.8281 244.352 73.1875 243.445 72.375C242.555 71.5625 241.867 70.6172 241.383 69.5391C240.898 68.4453 240.656 67.2891 240.656 66.0703V51.8203C240.656 50.6016 240.898 49.4531 241.383 48.375C241.867 47.2812 242.555 46.3281 243.445 45.5156C244.352 44.7031 245.445 44.0625 246.727 43.5938C248.008 43.125 249.438 42.8906 251.016 42.8906H258.234ZM261.305 48.75L260.953 46.7812L259.477 45.2812L257.109 45H252.023L249.68 45.2812L248.203 46.7812L247.852 48.75V59.8828L248.203 61.8516L249.68 63.3281L252.023 63.6328H257.93L260.672 63.2812L260.086 60.75L257.883 61.125H252.188L250.688 60.8906L250.359 59.4844V54.6562H261.305V48.75ZM250.359 52.1953V49.0312L250.547 47.6953L252.188 47.4375H256.969L258.562 47.6953L258.797 49.0781V52.1953H250.359ZM285.984 42.8906C287.562 42.8906 288.992 43.125 290.273 43.5938C291.555 44.0625 292.641 44.7031 293.531 45.5156C294.438 46.3281 295.133 47.2812 295.617 48.375C296.102 49.4531 296.344 50.6016 296.344 51.8203V66.0703C296.344 67.2891 296.102 68.4453 295.617 69.5391C295.133 70.6172 294.438 71.5625 293.531 72.375C292.641 73.1875 291.555 73.8281 290.273 74.2969C288.992 74.7656 287.562 75 285.984 75H278.766C277.188 75 275.758 74.7656 274.477 74.2969C273.195 73.8281 272.102 73.1875 271.195 72.375C270.305 71.5625 269.617 70.6172 269.133 69.5391C268.648 68.4453 268.406 67.2891 268.406 66.0703V51.8203C268.406 50.6016 268.648 49.4531 269.133 48.375C269.617 47.2812 270.305 46.3281 271.195 45.5156C272.102 44.7031 273.195 44.0625 274.477 43.5938C275.758 43.125 277.188 42.8906 278.766 42.8906H285.984ZM287.18 58.5938V64.3828H289.664V58.3359L288.844 56.1797L286.172 55.2188L288.75 53.9766L289.477 51.8672V49.2656L289.195 47.2969L287.648 45.3281L285.305 45H276.562V64.3828H279.07V56.5781H285.164L286.828 57.3281L287.18 58.5938ZM285.164 47.4844L286.828 48.2109L286.992 49.5703V52.0547L286.641 53.3438L285.164 54.0703H279.07V47.4844H285.164Z" fill="#00070B"/>
</svg>
