<svg width="336" height="104" viewBox="0 0 336 104" fill="none" xmlns="http://www.w3.org/2000/svg">
<path d="M25.8914 25.6825C20.7706 30.7522 17.2681 37.2267 15.8269 44.287C14.3857 51.3473 15.0705 58.6766 17.7947 65.3477C20.5189 72.0187 25.1602 77.7324 31.1315 81.7657C37.1028 85.799 44.1363 87.9712 51.3421 88.0073C58.5478 88.0434 65.6027 85.9419 71.6142 81.9686C77.6256 77.9953 82.324 72.3285 85.1149 65.685C87.9058 59.0415 88.664 51.7195 87.2936 44.6451C85.9233 37.5707 82.4858 31.0614 77.4161 25.9406L51.3421 88.0073L25.8914 25.6825Z" fill="#F9FDFF"/>
<path d="M52.2665 77.7973L45.9072 61.7529L58.9451 61.8832L52.2665 77.7973Z" fill="#F9FDFF"/>
<path d="M52.0966 71.2984L41.3253 44.3819L63.2273 44.5285L52.0966 71.2984Z" fill="#F9FDFF"/>
<path d="M52.4527 61.013L38.242 26.0716L66.7388 26.1024L52.4527 61.013Z" fill="#F9FDFF"/>
<path d="M119.484 42.9399C121.062 42.9399 122.492 43.1743 123.773 43.643C125.055 44.1118 126.141 44.7524 127.031 45.5649C127.938 46.3774 128.633 47.3305 129.117 48.4243C129.602 49.5024 129.844 50.6508 129.844 51.8696V66.1196C129.844 67.3383 129.602 68.4946 129.117 69.5883C128.633 70.6664 127.938 71.6118 127.031 72.4243C126.141 73.2368 125.055 73.8774 123.773 74.3461C122.492 74.8149 121.062 75.0493 119.484 75.0493H112.266C110.688 75.0493 109.258 74.8149 107.977 74.3461C106.695 73.8774 105.602 73.2368 104.695 72.4243C103.805 71.6118 103.117 70.6664 102.633 69.5883C102.148 68.4946 101.906 67.3383 101.906 66.1196V51.8696C101.906 50.6508 102.148 49.5024 102.633 48.4243C103.117 47.3305 103.805 46.3774 104.695 45.5649C105.602 44.7524 106.695 44.1118 107.977 43.643C109.258 43.1743 110.688 42.9399 112.266 42.9399H119.484ZM115.828 45.4243L114.539 45.0493H111.469L109.5 45.3774L108 46.8774V64.4321H110.508V47.7446C110.727 47.6977 110.922 47.6664 111.094 47.6508C111.266 47.6352 111.453 47.5961 111.656 47.5336H114.328C114.5 47.5961 114.664 47.6352 114.82 47.6508C114.992 47.6664 115.164 47.6977 115.336 47.7446V57.6821H117.844V47.7446L118.852 47.5336H121.547C121.734 47.5961 121.922 47.6352 122.109 47.6508C122.297 47.6664 122.492 47.6977 122.695 47.7446V64.4321H125.18V46.8774L123.703 45.3774L121.734 45.0493H118.664L117.398 45.4243L116.602 47.0414L115.828 45.4243ZM138.141 61.9477V64.4321H151.688V61.9477H146.18V47.5336H151.688V45.0493H138.141V47.5336H143.672V61.9477H138.141ZM147.234 42.9399C148.812 42.9399 150.242 43.1743 151.523 43.643C152.805 44.1118 153.891 44.7524 154.781 45.5649C155.688 46.3774 156.383 47.3305 156.867 48.4243C157.352 49.5024 157.594 50.6508 157.594 51.8696V66.1196C157.594 67.3383 157.352 68.4946 156.867 69.5883C156.383 70.6664 155.688 71.6118 154.781 72.4243C153.891 73.2368 152.805 73.8774 151.523 74.3461C150.242 74.8149 148.812 75.0493 147.234 75.0493H140.016C138.438 75.0493 137.008 74.8149 135.727 74.3461C134.445 73.8774 133.352 73.2368 132.445 72.4243C131.555 71.6118 130.867 70.6664 130.383 69.5883C129.898 68.4946 129.656 67.3383 129.656 66.1196V51.8696C129.656 50.6508 129.898 49.5024 130.383 48.4243C130.867 47.3305 131.555 46.3774 132.445 45.5649C133.352 44.7524 134.445 44.1118 135.727 43.643C137.008 43.1743 138.438 42.9399 140.016 42.9399H147.234ZM179.344 48.7993L179.016 46.8305L177.516 45.3305L175.125 45.0493H169.266L165.047 45.6352V64.4321H167.531V47.7914L169.359 47.4868H174.984L176.602 47.7446L176.836 49.1274V64.4321H179.344V48.7993ZM174.984 42.9399C176.562 42.9399 177.992 43.1743 179.273 43.643C180.555 44.1118 181.641 44.7524 182.531 45.5649C183.438 46.3774 184.133 47.3305 184.617 48.4243C185.102 49.5024 185.344 50.6508 185.344 51.8696V66.1196C185.344 67.3383 185.102 68.4946 184.617 69.5883C184.133 70.6664 183.438 71.6118 182.531 72.4243C181.641 73.2368 180.555 73.8774 179.273 74.3461C177.992 74.8149 176.562 75.0493 174.984 75.0493H167.766C166.188 75.0493 164.758 74.8149 163.477 74.3461C162.195 73.8774 161.102 73.2368 160.195 72.4243C159.305 71.6118 158.617 70.6664 158.133 69.5883C157.648 68.4946 157.406 67.3383 157.406 66.1196V51.8696C157.406 50.6508 157.648 49.5024 158.133 48.4243C158.617 47.3305 159.305 46.3774 160.195 45.5649C161.102 44.7524 162.195 44.1118 163.477 43.643C164.758 43.1743 166.188 42.9399 167.766 42.9399H174.984ZM193.641 61.9477V64.4321H207.188V61.9477H201.68V47.5336H207.188V45.0493H193.641V47.5336H199.172V61.9477H193.641ZM202.734 42.9399C204.312 42.9399 205.742 43.1743 207.023 43.643C208.305 44.1118 209.391 44.7524 210.281 45.5649C211.188 46.3774 211.883 47.3305 212.367 48.4243C212.852 49.5024 213.094 50.6508 213.094 51.8696V66.1196C213.094 67.3383 212.852 68.4946 212.367 69.5883C211.883 70.6664 211.188 71.6118 210.281 72.4243C209.391 73.2368 208.305 73.8774 207.023 74.3461C205.742 74.8149 204.312 75.0493 202.734 75.0493H195.516C193.938 75.0493 192.508 74.8149 191.227 74.3461C189.945 73.8774 188.852 73.2368 187.945 72.4243C187.055 71.6118 186.367 70.6664 185.883 69.5883C185.398 68.4946 185.156 67.3383 185.156 66.1196V51.8696C185.156 50.6508 185.398 49.5024 185.883 48.4243C186.367 47.3305 187.055 46.3774 187.945 45.5649C188.852 44.7524 189.945 44.1118 191.227 43.643C192.508 43.1743 193.938 42.9399 195.516 42.9399H202.734ZM232.641 53.1118H224.812V47.5336H233.977V45.0493H222.305V64.4321H224.812V55.5727H232.641V53.1118ZM230.484 42.9399C232.062 42.9399 233.492 43.1743 234.773 43.643C236.055 44.1118 237.141 44.7524 238.031 45.5649C238.938 46.3774 239.633 47.3305 240.117 48.4243C240.602 49.5024 240.844 50.6508 240.844 51.8696V66.1196C240.844 67.3383 240.602 68.4946 240.117 69.5883C239.633 70.6664 238.938 71.6118 238.031 72.4243C237.141 73.2368 236.055 73.8774 234.773 74.3461C233.492 74.8149 232.062 75.0493 230.484 75.0493H223.266C221.688 75.0493 220.258 74.8149 218.977 74.3461C217.695 73.8774 216.602 73.2368 215.695 72.4243C214.805 71.6118 214.117 70.6664 213.633 69.5883C213.148 68.4946 212.906 67.3383 212.906 66.1196V51.8696C212.906 50.6508 213.148 49.5024 213.633 48.4243C214.117 47.3305 214.805 46.3774 215.695 45.5649C216.602 44.7524 217.695 44.1118 218.977 43.643C220.258 43.1743 221.688 42.9399 223.266 42.9399H230.484ZM258.234 42.9399C259.812 42.9399 261.242 43.1743 262.523 43.643C263.805 44.1118 264.891 44.7524 265.781 45.5649C266.688 46.3774 267.383 47.3305 267.867 48.4243C268.352 49.5024 268.594 50.6508 268.594 51.8696V66.1196C268.594 67.3383 268.352 68.4946 267.867 69.5883C267.383 70.6664 266.688 71.6118 265.781 72.4243C264.891 73.2368 263.805 73.8774 262.523 74.3461C261.242 74.8149 259.812 75.0493 258.234 75.0493H251.016C249.438 75.0493 248.008 74.8149 246.727 74.3461C245.445 73.8774 244.352 73.2368 243.445 72.4243C242.555 71.6118 241.867 70.6664 241.383 69.5883C240.898 68.4946 240.656 67.3383 240.656 66.1196V51.8696C240.656 50.6508 240.898 49.5024 241.383 48.4243C241.867 47.3305 242.555 46.3774 243.445 45.5649C244.352 44.7524 245.445 44.1118 246.727 43.643C248.008 43.1743 249.438 42.9399 251.016 42.9399H258.234ZM261.305 48.7993L260.953 46.8305L259.477 45.3305L257.109 45.0493H252.023L249.68 45.3305L248.203 46.8305L247.852 48.7993V59.9321L248.203 61.9008L249.68 63.3774L252.023 63.6821H257.93L260.672 63.3305L260.086 60.7993L257.883 61.1743H252.188L250.688 60.9399L250.359 59.5336V54.7055H261.305V48.7993ZM250.359 52.2446V49.0805L250.547 47.7446L252.188 47.4868H256.969L258.562 47.7446L258.797 49.1274V52.2446H250.359ZM285.984 42.9399C287.562 42.9399 288.992 43.1743 290.273 43.643C291.555 44.1118 292.641 44.7524 293.531 45.5649C294.438 46.3774 295.133 47.3305 295.617 48.4243C296.102 49.5024 296.344 50.6508 296.344 51.8696V66.1196C296.344 67.3383 296.102 68.4946 295.617 69.5883C295.133 70.6664 294.438 71.6118 293.531 72.4243C292.641 73.2368 291.555 73.8774 290.273 74.3461C288.992 74.8149 287.562 75.0493 285.984 75.0493H278.766C277.188 75.0493 275.758 74.8149 274.477 74.3461C273.195 73.8774 272.102 73.2368 271.195 72.4243C270.305 71.6118 269.617 70.6664 269.133 69.5883C268.648 68.4946 268.406 67.3383 268.406 66.1196V51.8696C268.406 50.6508 268.648 49.5024 269.133 48.4243C269.617 47.3305 270.305 46.3774 271.195 45.5649C272.102 44.7524 273.195 44.1118 274.477 43.643C275.758 43.1743 277.188 42.9399 278.766 42.9399H285.984ZM287.18 58.643V64.4321H289.664V58.3852L288.844 56.2289L286.172 55.268L288.75 54.0258L289.477 51.9164V49.3149L289.195 47.3461L287.648 45.3774L285.305 45.0493H276.562V64.4321H279.07V56.6274H285.164L286.828 57.3774L287.18 58.643ZM285.164 47.5336L286.828 48.2602L286.992 49.6196V52.1039L286.641 53.393L285.164 54.1196H279.07V47.5336H285.164Z" fill="#F9FDFF"/>
</svg>
